<svg xmlns="http://www.w3.org/2000/svg" width="32" height="32" fill="none" viewBox="0 0 32 32">
	<path fill="#FEFFFF" d="M30.133 32c-3.703 0-7.363-.807-10.977-2.422-3.615-1.615-6.904-3.904-9.867-6.867-2.963-2.963-5.252-6.252-6.867-9.867C.807 9.23 0 5.57 0 1.867 0 1.333.178.889.533.533.89.178 1.333 0 1.867 0h7.2c.414 0 .785.14 1.11.422.327.282.52.615.579 1l1.155 6.222c.06.475.045.875-.044 1.2a1.87 1.87 0 0 1-.49.845l-4.31 4.355a21.497 21.497 0 0 0 2.11 3.178 31.268 31.268 0 0 0 2.69 2.956c.918.918 1.881 1.77 2.889 2.555a28.097 28.097 0 0 0 3.2 2.156l4.177-4.178c.267-.267.615-.467 1.045-.6A2.87 2.87 0 0 1 24.444 20l6.134 1.244c.415.119.755.334 1.022.645s.4.66.4 1.044v7.2c0 .534-.178.978-.533 1.334-.356.355-.8.533-1.334.533ZM5.378 10.667 8.31 7.733l-.755-4.177H3.6c.148 1.214.356 2.414.622 3.6a19.472 19.472 0 0 0 1.156 3.51Zm15.91 15.91c1.156.504 2.334.904 3.534 1.2 1.2.297 2.408.49 3.622.579v-3.912l-4.177-.844-2.978 2.978Z" />
</svg>
