<svg width="20" height="20" viewBox="0 0 20 20" fill="none" xmlns="http://www.w3.org/2000/svg">
	<g id="Group">
		<path id="Vector" d="M15.1905 8.2412C15.1905 5.38017 12.8703 3.06084 10.0082 3.06084C7.14613 3.06084 4.82596 5.38017 4.82596 8.2412V11.3616C4.82596 14.2227 7.14613 16.542 10.0082 16.542C12.8703 16.542 15.1905 14.2227 15.1905 11.3616V8.2412Z" fill="#117FAD" />
		<g id="Group_2">
			<path id="Vector_2" d="M11.812 18.8517C14.1544 18.5244 16.4605 16.2288 16.4062 13.3591C15.979 13.1967 15.9083 13.0939 15.9083 12.6324C15.9083 11.0461 15.9136 9.45971 15.9044 7.87335C15.9022 7.51002 15.9953 7.24173 16.3817 7.16733C16.2336 4.14901 13.6182 1.04688 9.79098 1.02552C5.96669 1.00416 3.28551 4.07823 3.1227 7.16244C3.51587 7.24626 3.60497 7.52197 3.60244 7.89326C3.59157 9.48759 3.59809 11.0819 3.59755 12.6763C3.59755 13.1556 3.4246 13.3292 2.94812 13.3298C2.49139 13.3303 2.03466 13.3339 1.57792 13.3289C0.674416 13.3189 0.0159375 12.6694 0.00706357 11.7633C-0.00271582 10.7619 -0.00181032 9.76022 0.00652027 8.75894C0.0141265 7.82754 0.673692 7.18398 1.60962 7.17656C1.75323 7.17547 1.89684 7.17656 2.06236 7.17656C2.29816 4.72596 3.38041 2.76069 5.4013 1.35083C6.78581 0.385034 8.33729 -0.0487144 10.0251 0.00432738C11.3082 0.0446971 12.5044 0.391189 13.6125 1.03366C14.7142 1.67234 15.6036 2.53603 16.2801 3.61515C16.9604 4.70007 17.3343 5.88799 17.4343 7.17674C17.6165 7.17674 17.776 7.17475 17.9356 7.1771C18.8168 7.18996 19.4802 7.81994 19.4963 8.70246C19.5151 9.7356 19.514 10.7696 19.4965 11.803C19.4814 12.6828 18.8172 13.3164 17.9368 13.3298C17.7856 13.3321 17.6342 13.3301 17.4868 13.3301C17.4251 13.7957 17.3899 14.2499 17.3017 14.6935C16.6869 17.7867 13.8547 20.0556 10.7025 19.9955C10.3261 19.9882 9.94926 20.0024 9.57275 19.9996C8.78859 19.9939 8.21704 19.4502 8.21432 18.7131C8.21161 17.985 8.79348 17.4366 9.57674 17.4306C9.83317 17.4287 10.0896 17.4299 10.346 17.4303C11.276 17.4319 11.774 17.9086 11.812 18.8519V18.8517ZM2.55785 12.3037V8.20264C2.19783 8.20264 1.85428 8.18942 1.51236 8.2068C1.22858 8.22128 1.04114 8.42675 1.03951 8.71495C1.03372 9.74031 1.0339 10.7657 1.03951 11.7908C1.04114 12.0792 1.22749 12.2847 1.51164 12.2995C1.85356 12.3173 2.1971 12.3037 2.55785 12.3037ZM16.945 12.2981C17.3166 12.2981 17.6755 12.3155 18.0317 12.2923C18.2918 12.2755 18.4646 12.0684 18.466 11.8006C18.4718 10.7673 18.4718 9.73397 18.4657 8.70065C18.4642 8.44214 18.2994 8.23613 18.0504 8.21857C17.6869 8.19322 17.3204 8.21205 16.945 8.21205V12.2981ZM10.0188 18.464C9.84331 18.464 9.66149 18.4365 9.49488 18.4745C9.39781 18.4967 9.27303 18.6133 9.25311 18.7071C9.22178 18.8541 9.33406 18.9622 9.49615 18.9647C9.83897 18.9701 10.1822 18.9714 10.525 18.964C10.6851 18.9605 10.7992 18.8543 10.7611 18.7027C10.7376 18.6088 10.6159 18.4969 10.5188 18.4736C10.3605 18.4355 10.1863 18.4632 10.0188 18.4638V18.464Z" fill="#050000" />
			<path id="Vector_3" d="M9.76327 14.4933C9.06078 14.4833 8.44649 14.2481 7.92601 13.7766C7.64531 13.5222 7.61253 13.2121 7.83365 12.9757C8.05097 12.7432 8.34236 12.7507 8.62071 12.9956C9.30364 13.5966 10.2003 13.5953 10.8886 12.9927C11.1664 12.7496 11.4598 12.7445 11.6753 12.9793C11.889 13.2119 11.8608 13.5159 11.5936 13.7632C11.0777 14.2409 10.4645 14.4782 9.76309 14.4934L9.76327 14.4933Z" fill="#050000" />
		</g>
	</g>
</svg>
