<svg xmlns="http://www.w3.org/2000/svg" width="20" height="20" fill="none" viewBox="0 0 20 20">
	<path fill="#117FAD" d="m13.655 4.626-4.82-2.874C8.107 1.32 7.2 1.86 7.2 2.726v5.748c0 .865.908 1.407 1.634.974l4.821-2.874c.727-.433.727-1.515 0-1.948Z" />
	<path fill="#050000" d="M6.783 20a.497.497 0 0 1-.143-.021c-.284-.086-.45-.408-.372-.718l1.48-5.833c.078-.31.372-.493.656-.406.284.086.45.407.372.717l-1.48 5.833a.544.544 0 0 1-.513.428Zm6.228 0a.543.543 0 0 1-.514-.428l-1.479-5.833c-.079-.31.088-.632.372-.718.284-.086.578.096.657.406l1.479 5.834c.079.31-.088.631-.372.717a.49.49 0 0 1-.143.021Zm5.966-8.752H1.227a.51.51 0 0 1-.498-.521.51.51 0 0 1 .498-.52h17.75a.51.51 0 0 1 .498.52.51.51 0 0 1-.498.52Z" />
	<path fill="#050000" d="M15.162 13.539H4.625a4.78 4.78 0 0 1-3.267-1.26C.482 11.466 0 10.39 0 9.249V4.29c0-1.142.482-2.218 1.358-3.03A4.78 4.78 0 0 1 4.625 0h10.537a4.78 4.78 0 0 1 3.267 1.26c.876.812 1.358 1.888 1.358 3.03v4.958c0 1.142-.482 2.218-1.358 3.03a4.78 4.78 0 0 1-3.267 1.26ZM4.625.975c-.95 0-1.846.346-2.524.974-.677.628-1.05 1.46-1.05 2.341v4.958c0 .882.373 1.713 1.05 2.342a3.694 3.694 0 0 0 2.524.974h10.537c.95 0 1.847-.346 2.524-.974.677-.629 1.05-1.46 1.05-2.342V4.29c0-.881-.373-1.713-1.05-2.341a3.694 3.694 0 0 0-2.524-.974H4.625Z" />
</svg>
