<svg xmlns="http://www.w3.org/2000/svg" width="29" height="36" fill="none" viewBox="0 0 29 36">
	<path fill="#FEFFFF" d="M14.4 18a3.46 3.46 0 0 0 2.542-1.058A3.46 3.46 0 0 0 18 14.4c0-.99-.352-1.838-1.058-2.543-.704-.704-1.552-1.057-2.542-1.057-.99 0-1.838.352-2.543 1.057-.704.706-1.057 1.553-1.057 2.543 0 .99.352 1.838 1.057 2.542C12.563 17.648 13.41 18 14.4 18Zm0 13.23c3.66-3.36 6.375-6.413 8.145-9.157 1.77-2.745 2.655-5.183 2.655-7.313 0-3.27-1.043-5.947-3.127-8.032C19.988 4.643 17.43 3.6 14.4 3.6c-3.03 0-5.588 1.042-7.673 3.127S3.6 11.49 3.6 14.76c0 2.13.885 4.568 2.655 7.313 1.77 2.744 4.485 5.797 8.145 9.157Zm0 4.77c-4.83-4.11-8.438-7.927-10.822-11.453C1.193 21.023 0 17.76 0 14.76c0-4.5 1.448-8.085 4.343-10.755C7.237 1.335 10.59 0 14.4 0c3.81 0 7.162 1.335 10.057 4.005C27.352 6.675 28.8 10.26 28.8 14.76c0 3-1.192 6.263-3.578 9.787C22.837 28.073 19.23 31.89 14.4 36Z" />
</svg>
