<svg width="20" height="20" viewBox="0 0 20 20" fill="none" xmlns="http://www.w3.org/2000/svg">
	<g id="Group">
		<path id="Vector" d="M19.2769 2.63263C19.2769 1.17867 18.0981 0 16.644 0C15.1898 0 14.011 1.17867 14.011 2.63263V3.96525C14.011 5.41921 15.1898 6.59788 16.644 6.59788C18.0981 6.59788 19.2769 5.41921 19.2769 3.96525V2.63263Z" fill="#117FAD" />
		<path id="Vector_2" d="M5.29632 2.63263C5.29632 1.17867 4.11753 0 2.66341 0C1.2093 0 0.0305023 1.17867 0.0305023 2.63263V3.96525C0.0305023 5.41921 1.2093 6.59788 2.66341 6.59788C4.11753 6.59788 5.29632 5.41921 5.29632 3.96525V2.63263Z" fill="#117FAD" />
		<g id="Group_2">
			<path id="Vector_3" d="M5.38072 13.5921C6.35619 13.8494 7.04192 14.4078 7.36374 15.3457C7.46766 15.6485 7.50798 15.9843 7.51694 16.3064C7.53808 17.0775 7.52321 17.8497 7.52303 18.6216C7.52303 18.7113 7.52303 18.8011 7.52303 18.9159C7.71243 18.9159 7.87046 18.9109 8.02814 18.917C8.3677 18.9301 8.60511 19.1574 8.60189 19.4595C8.59866 19.7635 8.3625 19.9871 8.02044 19.9947C7.69343 20.0018 7.36589 20.0018 7.03888 19.9943C6.65865 19.9854 6.45456 19.7766 6.45313 19.3902C6.44919 18.3752 6.4508 17.3601 6.45223 16.3451C6.45367 15.3052 5.78066 14.6253 4.74122 14.6224C4.06158 14.6207 3.38212 14.626 2.70248 14.6207C1.18193 14.6087 0.0152747 13.4382 0.0073907 11.914C0.00183604 10.8403 -0.0071231 9.76622 0.00989926 8.69285C0.0260257 7.68308 0.488138 6.91285 1.35341 6.39364C1.43781 6.34293 1.58079 6.32627 1.67164 6.36049C2.35468 6.61688 3.02949 6.61616 3.71253 6.36049C3.80373 6.32645 3.94726 6.34222 4.03148 6.39292C4.92363 6.93059 5.37284 7.7311 5.37839 8.76917C5.38646 10.2707 5.38054 11.7725 5.38072 13.2741C5.38072 13.3739 5.38072 13.4738 5.38072 13.5921ZM4.28233 13.541C4.28986 13.469 4.29935 13.4197 4.29935 13.3705C4.29989 11.8182 4.3076 10.2659 4.29631 8.71381C4.28968 7.79792 3.60162 7.118 2.7057 7.10725C1.82054 7.09668 1.09987 7.7775 1.08302 8.68604C1.06278 9.77643 1.06546 10.8677 1.08213 11.9581C1.09503 12.803 1.70819 13.4699 2.54999 13.533C3.11603 13.5754 3.6878 13.541 4.28251 13.541H4.28233Z" fill="#050000" />
			<path id="Vector_4" d="M11.8268 18.9159C11.8268 18.7824 11.8268 18.6758 11.8268 18.569C11.8268 17.8391 11.8281 17.1094 11.8263 16.3795C11.8229 14.989 12.5351 14.028 13.8727 13.6214C13.8962 13.6143 13.919 13.6046 13.9688 13.5861C13.9688 13.4949 13.9688 13.396 13.9688 13.2972C13.9688 11.7872 13.9629 10.2772 13.9709 8.76718C13.9765 7.73967 14.4169 6.94203 15.2992 6.40669C15.3947 6.34864 15.5576 6.33198 15.6624 6.36997C16.3304 6.61237 16.9885 6.61417 17.6556 6.36764C17.7547 6.33109 17.9081 6.34148 17.9975 6.39487C18.8553 6.90728 19.3185 7.67177 19.3383 8.66989C19.3604 9.76834 19.3514 10.8677 19.3403 11.9665C19.3254 13.4306 18.1568 14.5993 16.6947 14.6194C15.9733 14.6292 15.2517 14.6194 14.5302 14.6237C13.6031 14.6291 12.9043 15.3213 12.8989 16.2464C12.893 17.2529 12.8967 18.2596 12.898 19.2663C12.8987 19.8235 12.7244 19.9968 12.158 19.9961C11.8811 19.9957 11.6041 20.002 11.3274 19.9943C10.9854 19.9848 10.7507 19.7619 10.7481 19.4577C10.7455 19.1558 10.9832 18.9295 11.3233 18.917C11.4808 18.9111 11.6385 18.9159 11.8265 18.9159H11.8268ZM15.0684 13.5369C15.6599 13.5369 16.2478 13.5756 16.8285 13.5276C17.6596 13.4589 18.2548 12.7942 18.2675 11.9541C18.284 10.872 18.2804 9.7893 18.2686 8.70716C18.2609 7.99928 17.8239 7.40858 17.1844 7.19036C16.1514 6.83812 15.0684 7.57484 15.0559 8.6672C15.038 10.236 15.05 11.8053 15.0501 13.3744C15.0501 13.4231 15.0607 13.472 15.0682 13.5369H15.0684Z" fill="#050000" />
			<path id="Vector_5" d="M9.13462 11.9395C9.00793 11.9395 8.90974 11.9395 8.81155 11.9395C8.05647 11.9395 7.30158 11.9412 6.5465 11.9384C6.16377 11.9369 5.91793 11.725 5.91434 11.4043C5.91076 11.0843 6.16018 10.86 6.53629 10.8596C8.62502 10.8577 10.7138 10.858 12.8025 10.8596C13.1836 10.86 13.4312 11.0736 13.435 11.3937C13.4388 11.7139 13.1906 11.9364 12.8134 11.9382C12.0501 11.9418 11.2866 11.9396 10.5233 11.9398C10.4326 11.9398 10.3418 11.9398 10.2149 11.9398C10.2149 12.0659 10.2149 12.1716 10.2149 12.2772C10.2149 14.5671 10.2151 16.857 10.2153 19.1468C10.2153 19.2475 10.2196 19.3486 10.2129 19.4487C10.1914 19.7705 9.96208 19.9975 9.66768 19.9936C9.38296 19.9896 9.16042 19.7685 9.13766 19.4595C9.12906 19.3427 9.13426 19.2248 9.13426 19.1073C9.13426 16.8342 9.13444 14.561 9.13462 12.2879C9.13462 12.1813 9.13462 12.0747 9.13462 11.9396V11.9395Z" fill="#050000" />
		</g>
	</g>
</svg>
